<mxfile host="app.diagrams.net" modified="2023-08-10T21:12:59.114Z" agent="Mozilla/5.0 (Windows NT 10.0; Win64; x64) AppleWebKit/537.36 (KHTML, like Gecko) Chrome/114.0.0.0 Safari/537.36 OPR/100.0.0.0" etag="y0XbmVhCNMTHuvX5kK0Y" version="21.6.8" type="google">
  <diagram name="Page-1" id="5-QiDl9e3-Zv7IOX27LE">
    <mxGraphModel grid="1" page="1" gridSize="10" guides="1" tooltips="1" connect="1" arrows="1" fold="1" pageScale="1" pageWidth="827" pageHeight="1169" math="0" shadow="0">
      <root>
        <mxCell id="0" />
        <mxCell id="1" parent="0" />
        <mxCell id="h7WiiUbAQXxC29xdBed2-1" value="" style="edgeStyle=orthogonalEdgeStyle;rounded=0;orthogonalLoop=1;jettySize=auto;html=1;" edge="1" parent="1" source="h7WiiUbAQXxC29xdBed2-4" target="h7WiiUbAQXxC29xdBed2-16">
          <mxGeometry relative="1" as="geometry">
            <Array as="points">
              <mxPoint x="1010" y="153" />
              <mxPoint x="1010" y="153" />
            </Array>
          </mxGeometry>
        </mxCell>
        <mxCell id="h7WiiUbAQXxC29xdBed2-2" value="" style="edgeStyle=orthogonalEdgeStyle;rounded=0;orthogonalLoop=1;jettySize=auto;html=1;entryX=0.75;entryY=0;entryDx=0;entryDy=0;" edge="1" parent="1" source="h7WiiUbAQXxC29xdBed2-4">
          <mxGeometry relative="1" as="geometry">
            <mxPoint x="1005" y="220.0526315789474" as="sourcePoint" />
            <mxPoint x="1200" y="260" as="targetPoint" />
            <Array as="points">
              <mxPoint x="1200" y="220" />
            </Array>
          </mxGeometry>
        </mxCell>
        <mxCell id="h7WiiUbAQXxC29xdBed2-3" value="DEPENDIENDO DE SUS HABILIDADES" style="edgeLabel;html=1;align=center;verticalAlign=middle;resizable=0;points=[];" connectable="0" vertex="1" parent="h7WiiUbAQXxC29xdBed2-2">
          <mxGeometry x="-0.5916" relative="1" as="geometry">
            <mxPoint x="69" as="offset" />
          </mxGeometry>
        </mxCell>
        <mxCell id="h7WiiUbAQXxC29xdBed2-4" value="VOLUNTARIOS" style="shape=cube;whiteSpace=wrap;html=1;boundedLbl=1;backgroundOutline=1;darkOpacity=0.05;darkOpacity2=0.1;" vertex="1" parent="1">
          <mxGeometry x="840" y="110" width="150" height="150" as="geometry" />
        </mxCell>
        <mxCell id="h7WiiUbAQXxC29xdBed2-5" style="edgeStyle=orthogonalEdgeStyle;rounded=0;orthogonalLoop=1;jettySize=auto;html=1;" edge="1" parent="1" source="h7WiiUbAQXxC29xdBed2-8" target="h7WiiUbAQXxC29xdBed2-22">
          <mxGeometry relative="1" as="geometry">
            <Array as="points">
              <mxPoint x="1010" y="503" />
              <mxPoint x="1010" y="503" />
            </Array>
          </mxGeometry>
        </mxCell>
        <mxCell id="h7WiiUbAQXxC29xdBed2-6" value="ANOTA SUS DATOS EN LA WEB" style="edgeLabel;html=1;align=center;verticalAlign=middle;resizable=0;points=[];" connectable="0" vertex="1" parent="h7WiiUbAQXxC29xdBed2-5">
          <mxGeometry x="-0.3484" y="-3" relative="1" as="geometry">
            <mxPoint as="offset" />
          </mxGeometry>
        </mxCell>
        <mxCell id="h7WiiUbAQXxC29xdBed2-7" style="edgeStyle=orthogonalEdgeStyle;rounded=0;orthogonalLoop=1;jettySize=auto;html=1;entryX=0;entryY=0.5;entryDx=0;entryDy=0;exitX=0;exitY=0;exitDx=85;exitDy=150;exitPerimeter=0;" edge="1" parent="1" source="h7WiiUbAQXxC29xdBed2-8" target="h7WiiUbAQXxC29xdBed2-31">
          <mxGeometry relative="1" as="geometry" />
        </mxCell>
        <mxCell id="h7WiiUbAQXxC29xdBed2-8" value="ESTUDIANTES" style="shape=cube;whiteSpace=wrap;html=1;boundedLbl=1;backgroundOutline=1;darkOpacity=0.05;darkOpacity2=0.1;" vertex="1" parent="1">
          <mxGeometry x="840" y="460" width="150" height="150" as="geometry" />
        </mxCell>
        <mxCell id="h7WiiUbAQXxC29xdBed2-9" style="edgeStyle=orthogonalEdgeStyle;rounded=0;orthogonalLoop=1;jettySize=auto;html=1;entryX=0.469;entryY=1.119;entryDx=0;entryDy=0;entryPerimeter=0;" edge="1" parent="1" source="h7WiiUbAQXxC29xdBed2-14" target="h7WiiUbAQXxC29xdBed2-35">
          <mxGeometry relative="1" as="geometry">
            <Array as="points">
              <mxPoint x="1865" y="300" />
              <mxPoint x="1441" y="300" />
            </Array>
          </mxGeometry>
        </mxCell>
        <mxCell id="h7WiiUbAQXxC29xdBed2-10" value="REGISTRA ESTUDIANTES" style="edgeLabel;html=1;align=center;verticalAlign=middle;resizable=0;points=[];" connectable="0" vertex="1" parent="h7WiiUbAQXxC29xdBed2-9">
          <mxGeometry x="0.0483" y="-1" relative="1" as="geometry">
            <mxPoint x="-102" as="offset" />
          </mxGeometry>
        </mxCell>
        <mxCell id="h7WiiUbAQXxC29xdBed2-11" value="REGISTRA VOLUNTARIOS" style="edgeStyle=orthogonalEdgeStyle;rounded=0;orthogonalLoop=1;jettySize=auto;html=1;entryX=1;entryY=0.5;entryDx=0;entryDy=0;" edge="1" parent="1" source="h7WiiUbAQXxC29xdBed2-14" target="h7WiiUbAQXxC29xdBed2-35">
          <mxGeometry relative="1" as="geometry" />
        </mxCell>
        <mxCell id="h7WiiUbAQXxC29xdBed2-12" style="edgeStyle=orthogonalEdgeStyle;rounded=0;orthogonalLoop=1;jettySize=auto;html=1;entryX=0.42;entryY=-0.068;entryDx=0;entryDy=0;entryPerimeter=0;" edge="1" parent="1" target="h7WiiUbAQXxC29xdBed2-35">
          <mxGeometry relative="1" as="geometry">
            <mxPoint x="1799" y="180" as="sourcePoint" />
            <mxPoint x="1394.98" y="271.812" as="targetPoint" />
            <Array as="points">
              <mxPoint x="1799" y="190" />
              <mxPoint x="1435" y="190" />
            </Array>
          </mxGeometry>
        </mxCell>
        <mxCell id="h7WiiUbAQXxC29xdBed2-13" value="ACTUALIZA INFORMACIÓN DE ESTUDIANTES Y VOLUNTARIOS" style="edgeLabel;html=1;align=center;verticalAlign=middle;resizable=0;points=[];" connectable="0" vertex="1" parent="h7WiiUbAQXxC29xdBed2-12">
          <mxGeometry x="0.5443" y="2" relative="1" as="geometry">
            <mxPoint x="123" as="offset" />
          </mxGeometry>
        </mxCell>
        <mxCell id="h7WiiUbAQXxC29xdBed2-14" value="ADMINISTRADORES" style="shape=cube;whiteSpace=wrap;html=1;boundedLbl=1;backgroundOutline=1;darkOpacity=0.05;darkOpacity2=0.1;" vertex="1" parent="1">
          <mxGeometry x="1790" y="70" width="150" height="150" as="geometry" />
        </mxCell>
        <mxCell id="h7WiiUbAQXxC29xdBed2-15" value="1" style="swimlane;fontStyle=0;childLayout=stackLayout;horizontal=1;startSize=26;fillColor=none;horizontalStack=0;resizeParent=1;resizeParentMax=0;resizeLast=0;collapsible=1;marginBottom=0;whiteSpace=wrap;html=1;" vertex="1" parent="1">
          <mxGeometry x="1070" y="100" width="136" height="80" as="geometry" />
        </mxCell>
        <mxCell id="h7WiiUbAQXxC29xdBed2-16" value="REGISTRARSE EN EL SITIO COMO VOLUNTARIO" style="text;strokeColor=none;fillColor=none;align=left;verticalAlign=top;spacingLeft=4;spacingRight=4;overflow=hidden;rotatable=0;points=[[0,0.5],[1,0.5]];portConstraint=eastwest;whiteSpace=wrap;html=1;" vertex="1" parent="h7WiiUbAQXxC29xdBed2-15">
          <mxGeometry y="26" width="136" height="54" as="geometry" />
        </mxCell>
        <mxCell id="h7WiiUbAQXxC29xdBed2-17" value="2" style="swimlane;fontStyle=0;childLayout=stackLayout;horizontal=1;startSize=26;fillColor=none;horizontalStack=0;resizeParent=1;resizeParentMax=0;resizeLast=0;collapsible=1;marginBottom=0;whiteSpace=wrap;html=1;" vertex="1" parent="1">
          <mxGeometry x="1240" y="30" width="140" height="100" as="geometry" />
        </mxCell>
        <mxCell id="h7WiiUbAQXxC29xdBed2-18" value="ACTUALIZAR LA INFORMACIÓN&amp;nbsp; PERSONAL Y LAS HABILIDADES" style="text;strokeColor=none;fillColor=none;align=left;verticalAlign=top;spacingLeft=4;spacingRight=4;overflow=hidden;rotatable=0;points=[[0,0.5],[1,0.5]];portConstraint=eastwest;whiteSpace=wrap;html=1;" vertex="1" parent="h7WiiUbAQXxC29xdBed2-17">
          <mxGeometry y="26" width="140" height="74" as="geometry" />
        </mxCell>
        <mxCell id="h7WiiUbAQXxC29xdBed2-19" value="3" style="swimlane;fontStyle=0;childLayout=stackLayout;horizontal=1;startSize=26;fillColor=none;horizontalStack=0;resizeParent=1;resizeParentMax=0;resizeLast=0;collapsible=1;marginBottom=0;whiteSpace=wrap;html=1;" vertex="1" parent="1">
          <mxGeometry x="1080" y="260" width="140" height="52" as="geometry" />
        </mxCell>
        <mxCell id="h7WiiUbAQXxC29xdBed2-20" value="DAR LECCIONES" style="text;strokeColor=none;fillColor=none;align=left;verticalAlign=top;spacingLeft=4;spacingRight=4;overflow=hidden;rotatable=0;points=[[0,0.5],[1,0.5]];portConstraint=eastwest;whiteSpace=wrap;html=1;" vertex="1" parent="h7WiiUbAQXxC29xdBed2-19">
          <mxGeometry y="26" width="140" height="26" as="geometry" />
        </mxCell>
        <mxCell id="h7WiiUbAQXxC29xdBed2-21" value="4" style="swimlane;fontStyle=0;childLayout=stackLayout;horizontal=1;startSize=26;fillColor=none;horizontalStack=0;resizeParent=1;resizeParentMax=0;resizeLast=0;collapsible=1;marginBottom=0;whiteSpace=wrap;html=1;" vertex="1" parent="1">
          <mxGeometry x="1310" y="454" width="140" height="80" as="geometry" />
        </mxCell>
        <mxCell id="h7WiiUbAQXxC29xdBed2-22" value="REGISTRARSE EN EL SITIO COMO ESTUDIANTE" style="text;strokeColor=none;fillColor=none;align=left;verticalAlign=top;spacingLeft=4;spacingRight=4;overflow=hidden;rotatable=0;points=[[0,0.5],[1,0.5]];portConstraint=eastwest;whiteSpace=wrap;html=1;" vertex="1" parent="h7WiiUbAQXxC29xdBed2-21">
          <mxGeometry y="26" width="140" height="54" as="geometry" />
        </mxCell>
        <mxCell id="h7WiiUbAQXxC29xdBed2-23" value="8" style="swimlane;fontStyle=0;childLayout=stackLayout;horizontal=1;startSize=26;fillColor=none;horizontalStack=0;resizeParent=1;resizeParentMax=0;resizeLast=0;collapsible=1;marginBottom=0;whiteSpace=wrap;html=1;" vertex="1" parent="1">
          <mxGeometry x="1720" y="596" width="140" height="100" as="geometry" />
        </mxCell>
        <mxCell id="h7WiiUbAQXxC29xdBed2-24" value="ACTUALIZAR INFORMACIÓN DEL ESTUDIANTE EN EL SITIO WEB" style="text;strokeColor=none;fillColor=none;align=left;verticalAlign=top;spacingLeft=4;spacingRight=4;overflow=hidden;rotatable=0;points=[[0,0.5],[1,0.5]];portConstraint=eastwest;whiteSpace=wrap;html=1;" vertex="1" parent="h7WiiUbAQXxC29xdBed2-23">
          <mxGeometry y="26" width="140" height="74" as="geometry" />
        </mxCell>
        <mxCell id="h7WiiUbAQXxC29xdBed2-25" value="7" style="swimlane;fontStyle=0;childLayout=stackLayout;horizontal=1;startSize=26;fillColor=none;horizontalStack=0;resizeParent=1;resizeParentMax=0;resizeLast=0;collapsible=1;marginBottom=0;whiteSpace=wrap;html=1;" vertex="1" parent="1">
          <mxGeometry x="1530" y="610" width="140" height="70" as="geometry" />
        </mxCell>
        <mxCell id="h7WiiUbAQXxC29xdBed2-26" value="MATRICULACIÓN DE CURSOS" style="text;strokeColor=none;fillColor=none;align=left;verticalAlign=top;spacingLeft=4;spacingRight=4;overflow=hidden;rotatable=0;points=[[0,0.5],[1,0.5]];portConstraint=eastwest;whiteSpace=wrap;html=1;" vertex="1" parent="h7WiiUbAQXxC29xdBed2-25">
          <mxGeometry y="26" width="140" height="44" as="geometry" />
        </mxCell>
        <mxCell id="h7WiiUbAQXxC29xdBed2-27" value="6" style="swimlane;fontStyle=0;childLayout=stackLayout;horizontal=1;startSize=26;fillColor=none;horizontalStack=0;resizeParent=1;resizeParentMax=0;resizeLast=0;collapsible=1;marginBottom=0;whiteSpace=wrap;html=1;" vertex="1" parent="1">
          <mxGeometry x="1270" y="626" width="140" height="52" as="geometry" />
        </mxCell>
        <mxCell id="h7WiiUbAQXxC29xdBed2-28" value="REALIZAR EXAMENES" style="text;strokeColor=none;fillColor=none;align=left;verticalAlign=top;spacingLeft=4;spacingRight=4;overflow=hidden;rotatable=0;points=[[0,0.5],[1,0.5]];portConstraint=eastwest;whiteSpace=wrap;html=1;" vertex="1" parent="h7WiiUbAQXxC29xdBed2-27">
          <mxGeometry y="26" width="140" height="26" as="geometry" />
        </mxCell>
        <mxCell id="h7WiiUbAQXxC29xdBed2-29" value="" style="edgeStyle=orthogonalEdgeStyle;rounded=0;orthogonalLoop=1;jettySize=auto;html=1;" edge="1" parent="1" source="h7WiiUbAQXxC29xdBed2-30" target="h7WiiUbAQXxC29xdBed2-28">
          <mxGeometry relative="1" as="geometry">
            <Array as="points">
              <mxPoint x="1220" y="659" />
              <mxPoint x="1220" y="659" />
            </Array>
          </mxGeometry>
        </mxCell>
        <mxCell id="h7WiiUbAQXxC29xdBed2-30" value="5" style="swimlane;fontStyle=0;childLayout=stackLayout;horizontal=1;startSize=26;fillColor=none;horizontalStack=0;resizeParent=1;resizeParentMax=0;resizeLast=0;collapsible=1;marginBottom=0;whiteSpace=wrap;html=1;" vertex="1" parent="1">
          <mxGeometry x="1060" y="612" width="140" height="80" as="geometry" />
        </mxCell>
        <mxCell id="h7WiiUbAQXxC29xdBed2-31" value="ACCEDER AL MATERIAL DESDE EL CAMPUS VIRTUAL" style="text;strokeColor=none;fillColor=none;align=left;verticalAlign=top;spacingLeft=4;spacingRight=4;overflow=hidden;rotatable=0;points=[[0,0.5],[1,0.5]];portConstraint=eastwest;whiteSpace=wrap;html=1;" vertex="1" parent="h7WiiUbAQXxC29xdBed2-30">
          <mxGeometry y="26" width="140" height="54" as="geometry" />
        </mxCell>
        <mxCell id="h7WiiUbAQXxC29xdBed2-32" style="edgeStyle=orthogonalEdgeStyle;rounded=0;orthogonalLoop=1;jettySize=auto;html=1;entryX=0.011;entryY=0.534;entryDx=0;entryDy=0;entryPerimeter=0;" edge="1" parent="1" source="h7WiiUbAQXxC29xdBed2-34" target="h7WiiUbAQXxC29xdBed2-14">
          <mxGeometry relative="1" as="geometry">
            <mxPoint x="1780.0000000000002" y="140" as="targetPoint" />
            <Array as="points">
              <mxPoint x="1370" y="150" />
            </Array>
          </mxGeometry>
        </mxCell>
        <mxCell id="h7WiiUbAQXxC29xdBed2-33" value="PROVEE DE DATOS ALMACENADOS A" style="edgeLabel;html=1;align=center;verticalAlign=middle;resizable=0;points=[];" connectable="0" vertex="1" parent="h7WiiUbAQXxC29xdBed2-32">
          <mxGeometry x="0.3264" relative="1" as="geometry">
            <mxPoint x="-52" y="3" as="offset" />
          </mxGeometry>
        </mxCell>
        <mxCell id="h7WiiUbAQXxC29xdBed2-34" value="D1" style="swimlane;horizontal=0;whiteSpace=wrap;html=1;startSize=40;" vertex="1" parent="1">
          <mxGeometry x="1340" y="234" width="170" height="26" as="geometry" />
        </mxCell>
        <mxCell id="h7WiiUbAQXxC29xdBed2-35" value="BASE DE DATOS" style="text;strokeColor=none;fillColor=none;align=left;verticalAlign=top;spacingLeft=4;spacingRight=4;overflow=hidden;rotatable=0;points=[[0,0.5],[1,0.5]];portConstraint=eastwest;whiteSpace=wrap;html=1;" vertex="1" parent="h7WiiUbAQXxC29xdBed2-34">
          <mxGeometry x="40" width="130" height="26" as="geometry" />
        </mxCell>
        <mxCell id="h7WiiUbAQXxC29xdBed2-36" style="edgeStyle=orthogonalEdgeStyle;rounded=0;orthogonalLoop=1;jettySize=auto;html=1;entryX=0;entryY=0;entryDx=65;entryDy=0;entryPerimeter=0;exitX=1.03;exitY=0.085;exitDx=0;exitDy=0;exitPerimeter=0;" edge="1" parent="1" source="h7WiiUbAQXxC29xdBed2-17">
          <mxGeometry relative="1" as="geometry">
            <mxPoint x="1410" y="40" as="sourcePoint" />
            <mxPoint x="1865" y="70" as="targetPoint" />
            <Array as="points">
              <mxPoint x="1623" y="38" />
              <mxPoint x="1865" y="38" />
            </Array>
          </mxGeometry>
        </mxCell>
        <mxCell id="h7WiiUbAQXxC29xdBed2-37" style="edgeStyle=orthogonalEdgeStyle;rounded=0;orthogonalLoop=1;jettySize=auto;html=1;entryX=0;entryY=0;entryDx=85;entryDy=150;entryPerimeter=0;" edge="1" parent="1" source="h7WiiUbAQXxC29xdBed2-22" target="h7WiiUbAQXxC29xdBed2-14">
          <mxGeometry relative="1" as="geometry" />
        </mxCell>
        <mxCell id="h7WiiUbAQXxC29xdBed2-38" value="ENVIADA A" style="edgeLabel;html=1;align=center;verticalAlign=middle;resizable=0;points=[];" connectable="0" vertex="1" parent="h7WiiUbAQXxC29xdBed2-37">
          <mxGeometry x="-0.5936" y="-3" relative="1" as="geometry">
            <mxPoint x="60" as="offset" />
          </mxGeometry>
        </mxCell>
        <mxCell id="h7WiiUbAQXxC29xdBed2-39" value="" style="edgeStyle=orthogonalEdgeStyle;rounded=0;orthogonalLoop=1;jettySize=auto;html=1;" edge="1" parent="1" source="h7WiiUbAQXxC29xdBed2-28" target="h7WiiUbAQXxC29xdBed2-26">
          <mxGeometry relative="1" as="geometry">
            <Array as="points">
              <mxPoint x="1340" y="710" />
              <mxPoint x="1600" y="710" />
            </Array>
          </mxGeometry>
        </mxCell>
        <mxCell id="h7WiiUbAQXxC29xdBed2-40" value="APRUEBA/DESAPRUEBA" style="edgeLabel;html=1;align=center;verticalAlign=middle;resizable=0;points=[];" connectable="0" vertex="1" parent="h7WiiUbAQXxC29xdBed2-39">
          <mxGeometry x="-0.1769" y="-1" relative="1" as="geometry">
            <mxPoint as="offset" />
          </mxGeometry>
        </mxCell>
        <mxCell id="h7WiiUbAQXxC29xdBed2-41" value="" style="edgeStyle=orthogonalEdgeStyle;rounded=0;orthogonalLoop=1;jettySize=auto;html=1;" edge="1" parent="1" source="h7WiiUbAQXxC29xdBed2-26" target="h7WiiUbAQXxC29xdBed2-24">
          <mxGeometry relative="1" as="geometry">
            <Array as="points">
              <mxPoint x="1700" y="660" />
              <mxPoint x="1700" y="660" />
            </Array>
          </mxGeometry>
        </mxCell>
        <mxCell id="h7WiiUbAQXxC29xdBed2-42" style="edgeStyle=orthogonalEdgeStyle;rounded=0;orthogonalLoop=1;jettySize=auto;html=1;entryX=0;entryY=0;entryDx=65;entryDy=0;entryPerimeter=0;" edge="1" parent="1" source="h7WiiUbAQXxC29xdBed2-20" target="h7WiiUbAQXxC29xdBed2-8">
          <mxGeometry relative="1" as="geometry">
            <Array as="points">
              <mxPoint x="1150" y="380" />
              <mxPoint x="905" y="380" />
            </Array>
          </mxGeometry>
        </mxCell>
        <mxCell id="h7WiiUbAQXxC29xdBed2-43" value="HACIA" style="edgeLabel;html=1;align=center;verticalAlign=middle;resizable=0;points=[];" connectable="0" vertex="1" parent="h7WiiUbAQXxC29xdBed2-42">
          <mxGeometry x="-0.1121" y="1" relative="1" as="geometry">
            <mxPoint as="offset" />
          </mxGeometry>
        </mxCell>
        <mxCell id="h7WiiUbAQXxC29xdBed2-44" style="edgeStyle=orthogonalEdgeStyle;rounded=0;orthogonalLoop=1;jettySize=auto;html=1;entryX=1;entryY=1;entryDx=0;entryDy=0;entryPerimeter=0;" edge="1" parent="1" source="h7WiiUbAQXxC29xdBed2-24" target="h7WiiUbAQXxC29xdBed2-14">
          <mxGeometry relative="1" as="geometry" />
        </mxCell>
        <mxCell id="h7WiiUbAQXxC29xdBed2-45" value="ENVIADA A&lt;br&gt;" style="edgeLabel;html=1;align=center;verticalAlign=middle;resizable=0;points=[];" connectable="0" vertex="1" parent="h7WiiUbAQXxC29xdBed2-44">
          <mxGeometry x="-0.5124" y="1" relative="1" as="geometry">
            <mxPoint as="offset" />
          </mxGeometry>
        </mxCell>
        <mxCell id="h7WiiUbAQXxC29xdBed2-46" style="edgeStyle=orthogonalEdgeStyle;rounded=0;orthogonalLoop=1;jettySize=auto;html=1;" edge="1" parent="1" target="h7WiiUbAQXxC29xdBed2-17">
          <mxGeometry relative="1" as="geometry">
            <mxPoint x="1110" y="100" as="sourcePoint" />
            <mxPoint x="1320" y="50" as="targetPoint" />
            <Array as="points">
              <mxPoint x="1120" y="100" />
              <mxPoint x="1120" y="40" />
            </Array>
          </mxGeometry>
        </mxCell>
      </root>
    </mxGraphModel>
  </diagram>
</mxfile>
